<svg width="11" height="7" viewBox="0 0 11 7" fill="none" xmlns="http://www.w3.org/2000/svg">
<path d="M10.192 1.55953L5.81698 5.93453C5.77634 5.97521 5.72809 6.00748 5.67498 6.02949C5.62187 6.05151 5.56494 6.06284 5.50745 6.06284C5.44995 6.06284 5.39302 6.05151 5.33991 6.02949C5.2868 6.00748 5.23855 5.97521 5.19791 5.93453L0.822914 1.55953C0.740821 1.47744 0.694702 1.3661 0.694702 1.25C0.694702 1.1339 0.740821 1.02256 0.822914 0.940468C0.905007 0.858375 1.01635 0.812256 1.13245 0.812256C1.24854 0.812256 1.35988 0.858375 1.44198 0.940468L5.50745 5.00648L9.57291 0.940468C9.61356 0.899819 9.66182 0.867576 9.71493 0.845577C9.76804 0.823578 9.82496 0.812256 9.88245 0.812256C9.93993 0.812256 9.99685 0.823578 10.05 0.845577C10.1031 0.867576 10.1513 0.899819 10.192 0.940468C10.2326 0.981116 10.2649 1.02937 10.2869 1.08248C10.3089 1.13559 10.3202 1.19251 10.3202 1.25C10.3202 1.30748 10.3089 1.36441 10.2869 1.41752C10.2649 1.47063 10.2326 1.51888 10.192 1.55953Z" fill="#031B15"/>
</svg>
