<svg width="14" height="8" viewBox="0 0 14 8" fill="none" xmlns="http://www.w3.org/2000/svg">
<path d="M13.5746 1.31723L7.32462 7.56723C7.26657 7.62534 7.19764 7.67144 7.12177 7.70289C7.04589 7.73435 6.96456 7.75053 6.88243 7.75053C6.80029 7.75053 6.71896 7.73435 6.64309 7.70289C6.56722 7.67144 6.49829 7.62534 6.44024 7.56723L0.19024 1.31723C0.0729647 1.19995 0.00708011 1.04089 0.00708011 0.875042C0.0070801 0.70919 0.0729647 0.55013 0.19024 0.432855C0.307516 0.315579 0.466575 0.249695 0.632428 0.249695C0.79828 0.249695 0.95734 0.315579 1.07462 0.432854L6.88243 6.24145L12.6902 0.432854C12.7483 0.374785 12.8172 0.328722 12.8931 0.297296C12.969 0.265869 13.0503 0.249694 13.1324 0.249694C13.2146 0.249694 13.2959 0.265869 13.3717 0.297296C13.4476 0.328722 13.5165 0.374785 13.5746 0.432854C13.6327 0.490923 13.6787 0.559861 13.7102 0.635731C13.7416 0.711602 13.7578 0.79292 13.7578 0.875042C13.7578 0.957164 13.7416 1.03848 13.7102 1.11435C13.6787 1.19022 13.6327 1.25916 13.5746 1.31723Z" fill="#FAFAFA"/>
</svg>
