<svg width="15" height="14" viewBox="0 0 15 14" fill="none" xmlns="http://www.w3.org/2000/svg">
<path d="M3.26047 5.81547L7.19797 1.87797C7.23861 1.83729 7.28686 1.80502 7.33997 1.78301C7.39308 1.76099 7.45001 1.74966 7.50751 1.74966C7.565 1.74966 7.62193 1.76099 7.67504 1.78301C7.72815 1.80502 7.7764 1.83729 7.81704 1.87797L11.7545 5.81547C11.8366 5.89756 11.8827 6.0089 11.8827 6.125C11.8827 6.2411 11.8366 6.35244 11.7545 6.43453C11.6724 6.51662 11.5611 6.56274 11.445 6.56274C11.3289 6.56274 11.2176 6.51662 11.1355 6.43453L7.94501 3.24352L7.94501 11.8125C7.94501 11.9285 7.89891 12.0398 7.81687 12.1219C7.73482 12.2039 7.62354 12.25 7.50751 12.25C7.39148 12.25 7.2802 12.2039 7.19815 12.1219C7.1161 12.0398 7.07001 11.9285 7.07001 11.8125L7.07001 3.24352L3.87954 6.43453C3.79744 6.51663 3.6861 6.56275 3.57001 6.56275C3.45391 6.56275 3.34257 6.51663 3.26047 6.43453C3.17838 6.35244 3.13226 6.2411 3.13226 6.125C3.13226 6.00891 3.17838 5.89756 3.26047 5.81547Z" fill="#027056"/>
</svg>
