<svg width="29" height="28" viewBox="0 0 29 28" fill="none" xmlns="http://www.w3.org/2000/svg">
<rect x="0.507446" width="28" height="28" rx="14" fill="#9106FF"/>
<rect x="1.00745" y="0.5" width="27" height="27" rx="13.5" stroke="white" stroke-opacity="0.1"/>
<path d="M10.7657 18.608C10.0857 18.608 9.4697 18.524 8.9177 18.356C8.3657 18.18 7.8857 17.932 7.4777 17.612L7.8977 16.628C8.1697 16.836 8.4497 17.008 8.7377 17.144C9.0337 17.28 9.3457 17.384 9.6737 17.456C10.0097 17.52 10.3737 17.552 10.7657 17.552C11.4377 17.552 11.9297 17.432 12.2417 17.192C12.5617 16.952 12.7217 16.636 12.7217 16.244C12.7217 15.908 12.6097 15.648 12.3857 15.464C12.1697 15.28 11.7857 15.132 11.2337 15.02L9.9257 14.756C9.1497 14.596 8.5697 14.336 8.1857 13.976C7.8097 13.608 7.6217 13.108 7.6217 12.476C7.6217 11.964 7.7577 11.516 8.0297 11.132C8.3017 10.748 8.6777 10.452 9.1577 10.244C9.6457 10.036 10.2137 9.932 10.8617 9.932C11.4617 9.932 12.0137 10.02 12.5177 10.196C13.0217 10.364 13.4457 10.616 13.7897 10.952L13.3817 11.9C13.0217 11.588 12.6377 11.36 12.2297 11.216C11.8217 11.064 11.3577 10.988 10.8377 10.988C10.2217 10.988 9.7377 11.116 9.3857 11.372C9.0417 11.628 8.8697 11.976 8.8697 12.416C8.8697 12.768 8.9777 13.044 9.1937 13.244C9.4177 13.444 9.7857 13.596 10.2977 13.7L11.6057 13.952C12.4137 14.12 13.0097 14.38 13.3937 14.732C13.7777 15.076 13.9697 15.552 13.9697 16.16C13.9697 16.648 13.8377 17.076 13.5737 17.444C13.3177 17.812 12.9497 18.1 12.4697 18.308C11.9897 18.508 11.4217 18.608 10.7657 18.608ZM18.3594 18.608C17.6794 18.608 17.0634 18.524 16.5114 18.356C15.9594 18.18 15.4794 17.932 15.0714 17.612L15.4914 16.628C15.7634 16.836 16.0434 17.008 16.3314 17.144C16.6274 17.28 16.9394 17.384 17.2674 17.456C17.6034 17.52 17.9674 17.552 18.3594 17.552C19.0314 17.552 19.5234 17.432 19.8354 17.192C20.1554 16.952 20.3154 16.636 20.3154 16.244C20.3154 15.908 20.2034 15.648 19.9794 15.464C19.7634 15.28 19.3794 15.132 18.8274 15.02L17.5194 14.756C16.7434 14.596 16.1634 14.336 15.7794 13.976C15.4034 13.608 15.2154 13.108 15.2154 12.476C15.2154 11.964 15.3514 11.516 15.6234 11.132C15.8954 10.748 16.2714 10.452 16.7514 10.244C17.2394 10.036 17.8074 9.932 18.4554 9.932C19.0554 9.932 19.6074 10.02 20.1114 10.196C20.6154 10.364 21.0394 10.616 21.3834 10.952L20.9754 11.9C20.6154 11.588 20.2314 11.36 19.8234 11.216C19.4154 11.064 18.9514 10.988 18.4314 10.988C17.8154 10.988 17.3314 11.116 16.9794 11.372C16.6354 11.628 16.4634 11.976 16.4634 12.416C16.4634 12.768 16.5714 13.044 16.7874 13.244C17.0114 13.444 17.3794 13.596 17.8914 13.7L19.1994 13.952C20.0074 14.12 20.6034 14.38 20.9874 14.732C21.3714 15.076 21.5634 15.552 21.5634 16.16C21.5634 16.648 21.4314 17.076 21.1674 17.444C20.9114 17.812 20.5434 18.1 20.0634 18.308C19.5834 18.508 19.0154 18.608 18.3594 18.608Z" fill="white"/>
</svg>
